<?xml version="1.0" standalone="no"?>
<!DOCTYPE svg PUBLIC "-//W3C//DTD SVG 20010904//EN"
 "http://www.w3.org/TR/2001/REC-SVG-20010904/DTD/svg10.dtd">
<svg version="1.0" xmlns="http://www.w3.org/2000/svg"
 width="512.000000pt" height="512.000000pt" viewBox="0 0 512.000000 512.000000"
 preserveAspectRatio="xMidYMid meet">

<g transform="translate(0.000000,512.000000) scale(0.100000,-0.100000)"
fill="#000000" stroke="none">
<path d="M1575 3904 c-272 -31 -482 -130 -665 -315 -142 -144 -237 -327 -280
-540 -11 -55 -12 -57 -47 -64 -119 -22 -274 -115 -379 -228 -150 -161 -222
-376 -194 -583 40 -307 254 -550 559 -637 l76 -22 1440 -3 c1290 -2 1448 -1
1520 13 367 74 625 406 602 775 -13 203 -87 361 -235 502 -92 88 -176 138
-288 174 l-81 26 -27 81 c-142 431 -604 641 -1019 462 l-77 -34 -43 51 c-186
222 -571 374 -862 342z"/>
</g>
</svg>
